<?xml version="1.0" encoding="UTF-8" standalone="no"?>
<svg
   xmlns:dc="http://purl.org/dc/elements/1.1/"
   xmlns:cc="http://creativecommons.org/ns#"
   xmlns:rdf="http://www.w3.org/1999/02/22-rdf-syntax-ns#"
   xmlns:svg="http://www.w3.org/2000/svg"
   xmlns="http://www.w3.org/2000/svg"
   xmlns:sodipodi="http://sodipodi.sourceforge.net/DTD/sodipodi-0.dtd"
   xmlns:inkscape="http://www.inkscape.org/namespaces/inkscape"
   width="24"
   height="24"
   viewBox="0 0 24 24"
   fill="none"
   version="1.1"
   id="svg22"
   sodipodi:docname="edit_white-24px.svg"
   inkscape:version="1.0.2-2 (e86c870879, 2021-01-15)">
  <metadata
     id="metadata28">
    <rdf:RDF>
      <cc:Work
         rdf:about="">
        <dc:format>image/svg+xml</dc:format>
        <dc:type
           rdf:resource="http://purl.org/dc/dcmitype/StillImage" />
        <dc:title></dc:title>
      </cc:Work>
    </rdf:RDF>
  </metadata>
  <defs
     id="defs26" />
  <sodipodi:namedview
     pagecolor="#ffffff"
     bordercolor="#666666"
     borderopacity="1"
     objecttolerance="10"
     gridtolerance="10"
     guidetolerance="10"
     inkscape:pageopacity="0"
     inkscape:pageshadow="2"
     inkscape:window-width="3440"
     inkscape:window-height="1377"
     id="namedview24"
     showgrid="false"
     inkscape:zoom="10.5"
     inkscape:cx="28.829661"
     inkscape:cy="14.304946"
     inkscape:window-x="-8"
     inkscape:window-y="1432"
     inkscape:window-maximized="1"
     inkscape:current-layer="svg22" />
  <path
     d="M3 17.25V21H6.75L17.81 9.94L14.06 6.19L3 17.25ZM20.71 7.04C21.1 6.65 21.1 6.02 20.71 5.63L18.37 3.29C17.98 2.9 17.35 2.9 16.96 3.29L15.13 5.12L18.88 8.87L20.71 7.04V7.04Z"
     fill="#2E66E6"
     id="path20" />
  <path
     style="fill:#ffffff;stroke-width:0.0952381"
     d="M 3.0103276,19.107883 V 17.274241 L 8.533833,11.751352 14.057338,6.2284623 15.91509,8.0843824 17.772843,9.9403025 12.272846,15.440913 6.7728482,20.941524 H 4.8915879 3.0103276 Z"
     id="path30" />
  <path
     style="fill:#ffffff;stroke-width:0.0952381"
     d="m 17.030655,6.9142529 -1.834983,-1.836795 0.931137,-0.9113142 c 0.512126,-0.5012228 1.032079,-0.9643023 1.155452,-1.0290657 0.482059,-0.2530523 0.758274,-0.078933 2.232941,1.4075938 1.360782,1.371725 1.399888,1.4224188 1.399888,1.8147204 0,0.3828547 -0.04965,0.4546121 -0.967127,1.3976155 -0.53192,0.546722 -0.993047,0.9940401 -1.024726,0.9940401 -0.03168,0 -0.883341,-0.8265577 -1.892582,-1.8367949 z"
     id="path32" />
</svg>
